<?xml version="1.0" encoding="utf-8"?>
<!-- Generator: Adobe Illustrator 26.0.2, SVG Export Plug-In . SVG Version: 6.00 Build 0)  -->
<svg version="1.1" id="Layer_1" xmlns="http://www.w3.org/2000/svg" xmlns:xlink="http://www.w3.org/1999/xlink" x="0px" y="0px"
	 viewBox="0 0 441.3 395.4" style="enable-background:new 0 0 441.3 395.4;" xml:space="preserve">
<style type="text/css">
	.st0{fill:#2C2D65;}
</style>
<g>
	<path class="st0" d="M421.7,316.4c12.9-21.3,19.6-45.9,19.6-70.6c0-78.2-65.5-141.8-146.5-143.9C275.9,42.9,218.3,0,150.6,0
		C67.8,0,0,64.4,0,143.9c0,24.6,6.7,49.3,19.6,70.6L1.1,280c-1.1,3.9,0,8.4,2.8,11.2c2.2,2.2,5,3.4,7.8,3.4l0,0c1.1,0,2.2,0,3.4-0.6
		l67.8-21.8c20.1,9.5,42.3,15.1,64.6,15.6c19.8,60.2,77.3,100.9,143.8,100.9c24.1,0,47-5.6,68.3-15.7l67.8,21.8
		c1.1,0.6,2.2,0.6,3.4,0.6l0,0c2.8,0,5.6-1.1,7.3-1.7c2.8-2.8,3.9-7.3,2.8-11.2L421.7,316.4z M80.1,249.2L28,266l14.6-50.4
		c1.1-2.8,0.6-6.2-1.1-9C29.1,188.2,23,166.3,23,143.9C23,76.7,80.6,22.4,151.2,22.4l0,0c70.6,0,127.7,53.8,127.7,121
		s-57.7,121.5-128.2,121.5c-21.8,0-43.1-5-62.2-15.1C86.2,248.6,82.9,248.1,80.1,249.2z M399.3,317.5l14.6,50.4l-52.1-16.8
		c-2.8-1.1-5.6-1.1-8.4,0.6c-19,10.1-40.3,15.1-62.2,15.1c-54.3,0-101.9-32-120.5-80.2c73.6-9.2,130.5-69.5,130.5-142.7
		c0-6.5-0.5-13-1.4-19.3c66.3,4.5,119,57,119,121.2c0,21.8-6.2,43.7-18.5,62.7C398.7,311.4,398.2,314.2,399.3,317.5z"/>
	<path class="st0" d="M229.6,117c0-6.2-5-11.2-11.2-11.2H84c-6.2,0-11.2,5-11.2,11.2s5,11.2,11.2,11.2h134.4
		C224.6,128.2,229.6,123.2,229.6,117z"/>
	<path class="st0" d="M212.8,173c0-6.2-5-11.2-11.2-11.2H100.8c-6.2,0-11.2,5-11.2,11.2s5,11.2,11.2,11.2h100.8
		C207.8,184.2,212.8,179.2,212.8,173z"/>
</g>
</svg>
