<svg xmlns="http://www.w3.org/2000/svg" width="29.991" height="29.091" viewBox="0 0 29.991 29.091">
  <path id="chat-icon" d="M27.2,11.817a12.364,12.364,0,0,0-24.7,0A3.065,3.065,0,0,0,0,14.846a3.1,3.1,0,0,0,3.088,3.088h.624V16.686H3.088a1.876,1.876,0,0,1-1.871-1.841A1.857,1.857,0,0,1,3.088,13a.609.609,0,0,0,.624-.624,11.134,11.134,0,1,1,22.268-.03.609.609,0,0,0,.624.624,1.841,1.841,0,1,1,0,3.682.609.609,0,0,0-.624.624,11.2,11.2,0,0,1-6.354,10.065l-.564.267.534,1.128.564-.267a12.412,12.412,0,0,0,7.037-10.6,3.086,3.086,0,0,0,0-6.057ZM24.109,17.31V12.352a9.264,9.264,0,1,0-18.527.03V17.34A9.322,9.322,0,0,0,14.1,26.574a6.712,6.712,0,0,0,.772.03A9.3,9.3,0,0,0,24.109,17.31ZM14.846,4.335a8.053,8.053,0,0,1,8.046,8.046H18.557a7.991,7.991,0,0,1-6.591-3.474.643.643,0,0,0-1.01,0,8.165,8.165,0,0,1-4.1,3.028A7.994,7.994,0,0,1,14.846,4.335Zm0,21.021a4.6,4.6,0,0,1-.653-.03A8.07,8.07,0,0,1,6.829,17.31V13.242a9.287,9.287,0,0,0,4.632-2.969A9.257,9.257,0,0,0,18.587,13.6h4.335V17.31A8.117,8.117,0,0,1,14.846,25.356Z" transform="translate(0.15 0.15)" fill="#2a2d64" stroke="#1f1f51" stroke-width="0.3"/>
</svg>
