<svg id="noun-bubble-chat-3699314" xmlns="http://www.w3.org/2000/svg" width="43.513" height="30.28" viewBox="0 0 43.513 30.28">
  <path id="Path_21" data-name="Path 21" d="M101.258,93.992H95.416a12.706,12.706,0,0,0-8.682,22l-1.693,4.821a1.036,1.036,0,0,0,1.407,1.286l6.423-2.932a12.522,12.522,0,0,0,2.541.268h5.843a12.722,12.722,0,0,0,0-25.443ZM91.086,108.333a2.072,2.072,0,1,1,1.465-.607A2.072,2.072,0,0,1,91.086,108.333Zm7.251,0h0a2.072,2.072,0,1,1,1.465-.607,2.072,2.072,0,0,1-1.465.607Zm7.251,0h0a2.072,2.072,0,1,1,1.465-.607,2.072,2.072,0,0,1-1.465.607Z" transform="translate(-82.692 -93.992)" fill="#fff"/>
  <path id="Path_22" data-name="Path 22" d="M372.373,175.541a11.489,11.489,0,0,0-8.067-19.7H363.5a14.742,14.742,0,0,1-9.066,22.032,11.433,11.433,0,0,0,4.646,1h5.231a11.508,11.508,0,0,0,1.96-.17l5.919,2.316h0a1.036,1.036,0,0,0,1.375-1.243Z" transform="translate(-332.313 -150.807)" fill="#ffd100"/>
</svg>
